<svg xmlns="http://www.w3.org/2000/svg" version="1.1" xmlns:xlink="http://www.w3.org/1999/xlink" xmlns:svgjs="http://svgjs.dev/svgjs" width="1500" height="515" viewBox="0 0 1500 515"><g transform="matrix(1,0,0,1,-0.9090909090909918,-1.0209358322976527)"><svg viewBox="0 0 396 136" data-background-color="#ffffff" preserveAspectRatio="xMidYMid meet" height="515" width="1500" xmlns="http://www.w3.org/2000/svg" xmlns:xlink="http://www.w3.org/1999/xlink"><g id="tight-bounds" transform="matrix(1,0,0,1,0.2400000000000091,0.26960635571356306)"><svg viewBox="0 0 395.52 135.46078728857287" height="135.46078728857287" width="395.52"><g><svg viewBox="0 0 626.2660988145933 214.48851839999998" height="135.46078728857287" width="395.52"><g transform="matrix(1,0,0,1,0,55.753153436189585)"><svg viewBox="0 0 395.52 102.9822115276208" height="102.9822115276208" width="395.52"><g id="textblocktransform"><svg viewBox="0 0 395.52 102.9822115276208" height="102.9822115276208" width="395.52" id="textblock"><g><svg viewBox="0 0 395.52 68.86587545787546" height="68.86587545787546" width="395.52"><g transform="matrix(1,0,0,1,0,0)"><svg width="395.52" viewBox="2.35 -35.2 204.73000000000002 35.650000000000006" height="68.86587545787546" data-palette-color="#b81d33"><path d="M18-32.3Q20.35-32.3 22.45-31.68 24.55-31.05 26.15-29.85L26.15-29.85 24.95-26.4 24.55-26.3Q21.65-29.1 17.55-29.1L17.55-29.1Q12.15-29.1 9.2-24.98 6.25-20.85 6.25-13.3L6.25-13.3Q6.25-8.25 8.3-5.58 10.35-2.9 14.15-2.9L14.15-2.9Q16.25-2.9 18.43-3.7 20.6-4.5 22.5-5.95L22.5-5.95 22.95-5.7 22.15-2.15Q17.85 0.35 13.55 0.35L13.55 0.35Q8.2 0.35 5.28-3.08 2.35-6.5 2.35-12.75L2.35-12.75Q2.35-18.8 4.2-23.2 6.05-27.6 9.58-29.95 13.1-32.3 18-32.3L18-32.3ZM36-35.2L31.85-5.45 31.6-0.15 27.85 0.2 32.1-30 32.25-34.85 36-35.2ZM50.24-23.3L50.64-23.3Q53.39-22.85 54.77-21 56.14-19.15 56.14-15.7L56.14-15.7Q56.14-11.1 54.84-7.55 53.55-4 51.07-1.93 48.59 0.15 45.2 0.45L45.2 0.45 44.74 0.4Q41.89-0.15 40.52-2 39.14-3.85 39.14-7.45L39.14-7.45Q39.14-11.95 40.49-15.48 41.84-19 44.37-21.05 46.89-23.1 50.24-23.3L50.24-23.3ZM49.59-20.25Q46.2-20.25 44.39-16.8 42.59-13.35 42.59-7.5L42.59-7.5Q42.59-4.9 43.3-3.73 43.99-2.55 45.64-2.55L45.64-2.55Q48.99-2.55 50.8-6.05 52.59-9.55 52.59-15.45L52.59-15.45Q52.59-18 51.89-19.13 51.2-20.25 49.59-20.25L49.59-20.25ZM67.49-20L65.14-5.55 65.04-4.75Q65.04-4 65.39-3.55 65.74-3.1 66.39-3.1L66.39-3.1Q68.19-3.1 70.74-7.1L70.74-7.1 71.19-7.1 72.24-5.75Q70.49-2.85 69.09-1.5 67.69-0.15 65.94 0.35L65.94 0.35Q63.94 0.35 62.82-0.75 61.69-1.85 61.69-3.85L61.69-3.85 61.79-5.05 63.94-17.95 64.19-20 60.84-20 60.59-20.25 60.84-22.5 64.54-22.5 65.24-28.05 68.69-29.65 68.99-29.35 67.89-22.5 73.99-22.5 74.29-22.1 74.04-20 67.49-20ZM91.39-23.25Q93.14-22.85 94.22-21.73 95.29-20.6 95.24-18.9L95.24-18.9 95.19-18.25 93.14-5.4 92.84-0.15 88.99 0.2 91.74-16.9 91.79-17.55Q91.79-19.1 90.74-19.1L90.74-19.1Q89.29-19.1 86.66-15.45 84.04-11.8 80.79-5.05L80.79-5.05 80.54-0.15 76.74 0.2 81.04-30 81.14-34.85 84.94-35.2 81.69-11.9 82.14-11.9Q84.59-16.2 86.64-18.88 88.69-21.55 90.84-23.25L90.84-23.25 91.39-23.25ZM111.89-14.95L112.19-14.6 111.89-12.2 99.59-10.5 99.29-10.85 99.59-13.25 111.89-14.95ZM129.24-28.9L123.79-28.8 122.29-17.4 127.44-17.3 132.44-17.4 132.64-17.05 131.94-14.15 126.69-14.3 121.89-14.25 121.29-9.95 120.24 0 116.44 0 117.89-9.65 120.49-32 136.64-32 136.89-31.65 136.09-28.65 129.24-28.9ZM146.78-7L147.38-6.95 148.58-5.4Q146.98-2.95 145.08-1.55 143.18-0.15 140.78 0.35L140.78 0.35 140.18 0.35Q136.98-0.05 135.51-2 134.03-3.95 134.03-7.8L134.03-7.8Q134.03-12.2 135.46-15.7 136.88-19.2 139.36-21.2 141.83-23.2 145.03-23.3L145.03-23.3 145.43-23.25Q147.58-23 148.71-21.85 149.83-20.7 149.83-18.8L149.83-18.8Q149.83-15.8 146.73-13.28 143.63-10.75 137.53-8.85L137.53-8.85Q137.53-5.7 138.36-4.25 139.18-2.8 140.93-2.8L140.93-2.8Q142.43-2.8 143.81-3.8 145.18-4.8 146.78-7L146.78-7ZM144.23-20.6Q141.68-20.6 139.91-18.13 138.13-15.65 137.68-11.5L137.68-11.5Q141.98-12.9 144.21-14.68 146.43-16.45 146.43-18.55L146.43-18.55Q146.43-20.6 144.23-20.6L144.23-20.6ZM169.93-23.15Q171.08-21.15 171.08-19.15L171.08-19.15Q171.08-16.5 168.88-12.75L168.88-12.75 161.38 0 157.28 0 154.78-22.8 158.53-23.15 158.68-19.15 159.93-4 160.28-4 165.88-13.8Q167.53-16.65 167.53-18.5L167.53-18.5Q167.53-20.1 166.33-21.85L166.33-21.85 166.43-22.35 169.93-23.15ZM185.33-7L185.93-6.95 187.13-5.4Q185.53-2.95 183.63-1.55 181.73-0.15 179.33 0.35L179.33 0.35 178.73 0.35Q175.53-0.05 174.05-2 172.58-3.95 172.58-7.8L172.58-7.8Q172.58-12.2 174-15.7 175.43-19.2 177.9-21.2 180.38-23.2 183.58-23.3L183.58-23.3 183.98-23.25Q186.13-23 187.25-21.85 188.38-20.7 188.38-18.8L188.38-18.8Q188.38-15.8 185.28-13.28 182.18-10.75 176.08-8.85L176.08-8.85Q176.08-5.7 176.9-4.25 177.73-2.8 179.48-2.8L179.48-2.8Q180.98-2.8 182.35-3.8 183.73-4.8 185.33-7L185.33-7ZM182.78-20.6Q180.23-20.6 178.45-18.13 176.68-15.65 176.23-11.5L176.23-11.5Q180.53-12.9 182.75-14.68 184.98-16.45 184.98-18.55L184.98-18.55Q184.98-20.6 182.78-20.6L182.78-20.6ZM205.88-23.1L207.08-23 206.33-18 206.03-17.85 205.58-17.9Q203.18-17.55 200.98-14.63 198.78-11.7 195.88-4.5L195.88-4.5 195.68-0.15 191.88 0.2 194.48-17.95 194.73-22.8 198.38-23.15 196.88-12.15 197.28-12.15Q199.08-15.8 201.15-18.48 203.23-21.15 205.88-23.1L205.88-23.1Z" opacity="1" transform="matrix(1,0,0,1,0,0)" fill="#b81d33" class="wordmark-text-0" data-fill-palette-color="primary" id="text-0"></path></svg></g></svg></g><g transform="matrix(1,0,0,1,163.310208,85.12345587246887)"><svg viewBox="0 0 232.209792 17.858755655151935" height="17.858755655151935" width="232.209792"><g transform="matrix(1,0,0,1,0,0)"><svg width="232.209792" viewBox="4.2 -38.1 505.1 38.85" height="17.858755655151935" data-palette-color="#b81d33"><path d="M10.6 0L4.2 0 4.2-34.85 22.4-34.85 22.4-29.35 10.6-29.35 10.6-20.2 20.9-20.2 20.9-14.6 10.6-14.6 10.6 0ZM31.4 0.7L31.4 0.7Q29.1 0.7 27.59-0.33 26.07-1.35 25.34-3.05 24.6-4.75 24.6-6.8L24.6-6.8Q24.6-7.95 25.19-9.33 25.77-10.7 27.27-11.95 28.77-13.2 31.5-14 34.22-14.8 38.5-14.8L38.5-14.8 38.5-15.95Q38.5-17.8 37.61-19.03 36.72-20.25 34.05-20.25L34.05-20.25Q32.1-20.25 30.24-19.59 28.37-18.93 27.5-17.95L27.5-17.95 25.5-22.75Q27-23.78 29.51-24.64 32.02-25.5 35.1-25.5L35.1-25.5Q38.8-25.5 40.85-24.38 42.9-23.25 43.72-21.19 44.55-19.13 44.55-16.35L44.55-16.35 44.55 0 39.2 0 38.75-3.55Q36.15 0.7 31.4 0.7ZM34.05-4.1L34.05-4.1Q35.17-4.1 36.46-5.01 37.75-5.93 38.5-7.35L38.5-7.35 38.5-10.9Q38.25-10.95 37.96-10.95 37.67-10.95 37.3-10.95L37.3-10.95Q35.92-10.95 34.41-10.64 32.9-10.33 31.85-9.55 30.8-8.78 30.8-7.4L30.8-7.4Q30.8-5.6 31.6-4.85 32.4-4.1 34.05-4.1ZM58.05 0.45L58.05 0.45Q55.32 0.45 53.58-0.06 51.84-0.58 50.88-1.24 49.92-1.9 49.55-2.35L49.55-2.35 51.4-7.1Q52.5-6.2 54.21-5.33 55.92-4.45 58.2-4.45L58.2-4.45Q59.97-4.45 60.68-5.18 61.4-5.9 61.4-6.75L61.4-6.75Q61.4-7.93 59.77-8.88 58.15-9.83 56-10.75L56-10.75Q54.72-11.3 53.3-12.15 51.87-13 50.86-14.4 49.84-15.8 49.84-18L49.84-18Q49.84-21.38 52.31-23.39 54.77-25.4 59.3-25.4L59.3-25.4Q62.2-25.4 64.21-24.54 66.22-23.68 66.9-23L66.9-23 65.2-18.5Q64.22-19.25 62.72-19.93 61.22-20.6 59.5-20.6L59.5-20.6Q57.59-20.6 56.84-20.1 56.09-19.6 56.09-18.5L56.09-18.5Q56.09-17.28 57.43-16.49 58.77-15.7 60.65-14.95L60.65-14.95Q63.77-13.73 65.68-11.94 67.59-10.15 67.59-7.4L67.59-7.4Q67.59-5.35 66.65-3.56 65.7-1.78 63.59-0.66 61.5 0.45 58.05 0.45ZM79.44 0L73.29 0 73.29-38.1 79.19-38.1 79.19-25.5 79.07-21.75Q80.07-23.2 81.87-24.35 83.67-25.5 86.64-25.5L86.64-25.5Q90.39-25.5 92.24-23.1 94.09-20.7 94.09-16.45L94.09-16.45 94.09 0 87.69 0 87.69-15.8Q87.69-17.88 86.71-19.16 85.72-20.45 83.94-20.45L83.94-20.45Q82.19-20.45 80.82-19.16 79.44-17.88 79.44-15.8L79.44-15.8 79.44 0ZM108.49-28.95L101.49-28.95 101.49-35.6 108.49-35.6 108.49-28.95ZM108.24 0L101.74 0 101.74-24.9 108.24-24.9 108.24 0ZM125.59 0.5L125.59 0.5Q120.09 0.5 117.09-2.95 114.09-6.4 114.09-12.5L114.09-12.5Q114.09-18.65 117.19-22.08 120.29-25.5 125.79-25.5L125.79-25.5Q131.31-25.5 134.2-21.96 137.09-18.43 137.09-12.5L137.09-12.5Q137.09-6.58 134.1-3.04 131.11 0.5 125.59 0.5ZM125.69-4.5L125.69-4.5Q130.44-4.5 130.44-12.5L130.44-12.5Q130.44-20.55 125.69-20.55L125.69-20.55Q123.34-20.55 122.04-18.69 120.74-16.82 120.74-12.5L120.74-12.5Q120.74-8.2 122.04-6.35 123.34-4.5 125.69-4.5ZM149.28 0L142.88 0 142.88-24.9 148.69-24.9 148.81-21.63Q149.78-23.13 151.53-24.31 153.28-25.5 156.13-25.5L156.13-25.5Q159.94-25.5 161.78-23.1 163.63-20.7 163.63-16.45L163.63-16.45 163.63 0 157.24 0 157.24-15.9Q157.24-17.98 156.36-19.26 155.49-20.55 153.69-20.55L153.69-20.55Q151.94-20.55 150.61-19.26 149.28-17.98 149.28-15.9L149.28-15.9 149.28 0ZM187.03 0L180.83 0 180.83-35.45 181.33-35.45 195.43-18.82 209.43-35.45 209.98-35.45 209.98 0 203.78 0 203.78-14.95 204-20.85 202.23-18.15 195.38-10.1 188.53-18.15 186.75-20.85 187.03-14.95 187.03 0ZM227.98 0.65L227.98 0.65Q223.78 0.65 221.2-1.11 218.63-2.88 217.45-5.79 216.28-8.7 216.28-12.15L216.28-12.15Q216.28-15.78 217.62-18.81 218.95-21.85 221.54-23.68 224.13-25.5 227.88-25.5L227.88-25.5Q233.48-25.5 235.7-22.26 237.93-19.03 237.93-13.1L237.93-13.1Q237.93-12.58 237.9-11.78 237.88-10.98 237.83-10.4L237.83-10.4 222.83-10.4Q222.98-7.45 224.49-5.78 226-4.1 229.03-4.1L229.03-4.1Q230.58-4.1 232.35-4.79 234.13-5.48 234.98-6.45L234.98-6.45 236.98-1.7Q235.98-1.03 233.81-0.19 231.65 0.65 227.98 0.65ZM222.78-14.3L222.78-14.3 231.58-14.3Q231.58-16.93 231.12-18.31 230.65-19.7 229.85-20.23 229.05-20.75 228.03-20.75L228.03-20.75Q225.48-20.75 224.2-18.86 222.93-16.98 222.78-14.3ZM253.93 0.65L253.93 0.65Q249.72 0.65 247.15-1.11 244.57-2.88 243.4-5.79 242.22-8.7 242.22-12.15L242.22-12.15Q242.22-15.78 243.56-18.81 244.9-21.85 247.49-23.68 250.07-25.5 253.82-25.5L253.82-25.5Q259.43-25.5 261.65-22.26 263.88-19.03 263.88-13.1L263.88-13.1Q263.88-12.58 263.85-11.78 263.82-10.98 263.77-10.4L263.77-10.4 248.78-10.4Q248.93-7.45 250.44-5.78 251.95-4.1 254.97-4.1L254.97-4.1Q256.52-4.1 258.3-4.79 260.07-5.48 260.93-6.45L260.93-6.45 262.93-1.7Q261.93-1.03 259.76-0.19 257.6 0.65 253.93 0.65ZM248.72-14.3L248.72-14.3 257.52-14.3Q257.52-16.93 257.06-18.31 256.6-19.7 255.8-20.23 255-20.75 253.97-20.75L253.97-20.75Q251.43-20.75 250.15-18.86 248.88-16.98 248.72-14.3ZM277.97 0.75L277.97 0.75Q273.75 0.75 272.26-1.45 270.77-3.65 270.77-8.1L270.77-8.1 270.77-19.65 267.52-19.65 267.52-24.9 271.02-24.9 271.37-30.15 276.82-32.5 276.82-24.9 282.97-24.9 282.97-19.65 276.82-19.65 276.82-8.25Q276.82-6.08 277.44-5.24 278.05-4.4 279.12-4.4L279.12-4.4Q280.22-4.4 281.45-4.98 282.67-5.55 283.37-6.15L283.37-6.15 284.57-1.1Q283.8-0.55 282.56-0.14 281.32 0.28 280.06 0.51 278.8 0.75 277.97 0.75ZM296.02 0.45L296.02 0.45Q293.29 0.45 291.56-0.06 289.82-0.58 288.86-1.24 287.89-1.9 287.52-2.35L287.52-2.35 289.37-7.1Q290.47-6.2 292.18-5.33 293.89-4.45 296.17-4.45L296.17-4.45Q297.94-4.45 298.66-5.18 299.37-5.9 299.37-6.75L299.37-6.75Q299.37-7.93 297.75-8.88 296.12-9.83 293.97-10.75L293.97-10.75Q292.69-11.3 291.27-12.15 289.84-13 288.83-14.4 287.82-15.8 287.82-18L287.82-18Q287.82-21.38 290.28-23.39 292.75-25.4 297.27-25.4L297.27-25.4Q300.17-25.4 302.18-24.54 304.19-23.68 304.87-23L304.87-23 303.17-18.5Q302.19-19.25 300.69-19.93 299.19-20.6 297.47-20.6L297.47-20.6Q295.57-20.6 294.82-20.1 294.07-19.6 294.07-18.5L294.07-18.5Q294.07-17.28 295.41-16.49 296.75-15.7 298.62-14.95L298.62-14.95Q301.75-13.73 303.66-11.94 305.57-10.15 305.57-7.4L305.57-7.4Q305.57-5.35 304.62-3.56 303.67-1.78 301.57-0.66 299.47 0.45 296.02 0.45ZM329.56 0.55L329.56 0.55Q325.89 0.55 323.14-0.68 320.39-1.9 319.12-3.25L319.12-3.25 321.67-8.5Q322.19-7.83 323.33-6.98 324.47-6.13 325.98-5.49 327.49-4.85 329.12-4.85L329.12-4.85Q330.99-4.85 332.38-5.9 333.76-6.95 333.76-9L333.76-9Q333.76-11.03 332.33-12.21 330.89-13.4 328.42-14.9L328.42-14.9Q326.39-16.13 324.44-17.51 322.49-18.9 321.2-20.91 319.92-22.93 319.92-26L319.92-26Q319.92-30.13 322.55-32.79 325.19-35.45 330.22-35.45L330.22-35.45Q332.76-35.45 334.55-34.85 336.34-34.25 337.45-33.48 338.56-32.7 339.12-32.2L339.12-32.2 336.31-27.1Q335.97-27.6 335.14-28.33 334.31-29.05 333.12-29.6 331.92-30.15 330.47-30.15L330.47-30.15Q328.44-30.15 327.43-28.99 326.42-27.83 326.42-26.25L326.42-26.25Q326.42-24.23 327.9-22.95 329.39-21.68 331.51-20.4L331.51-20.4Q333.87-19 335.87-17.59 337.87-16.18 339.09-14.21 340.31-12.25 340.31-9.2L340.31-9.2Q340.31-4.63 337.44-2.04 334.56 0.55 329.56 0.55ZM353.96 0.75L353.96 0.75Q349.74 0.75 348.25-1.45 346.76-3.65 346.76-8.1L346.76-8.1 346.76-19.65 343.51-19.65 343.51-24.9 347.01-24.9 347.36-30.15 352.81-32.5 352.81-24.9 358.96-24.9 358.96-19.65 352.81-19.65 352.81-8.25Q352.81-6.08 353.43-5.24 354.04-4.4 355.11-4.4L355.11-4.4Q356.21-4.4 357.44-4.98 358.66-5.55 359.36-6.15L359.36-6.15 360.56-1.1Q359.79-0.55 358.55-0.14 357.31 0.28 356.05 0.51 354.79 0.75 353.96 0.75ZM370.21 0.7L370.21 0.7Q367.91 0.7 366.4-0.33 364.88-1.35 364.15-3.05 363.41-4.75 363.41-6.8L363.41-6.8Q363.41-7.95 364-9.33 364.58-10.7 366.08-11.95 367.58-13.2 370.31-14 373.03-14.8 377.31-14.8L377.31-14.8 377.31-15.95Q377.31-17.8 376.42-19.03 375.53-20.25 372.86-20.25L372.86-20.25Q370.91-20.25 369.05-19.59 367.19-18.93 366.31-17.95L366.31-17.95 364.31-22.75Q365.81-23.78 368.32-24.64 370.83-25.5 373.91-25.5L373.91-25.5Q377.61-25.5 379.66-24.38 381.71-23.25 382.53-21.19 383.36-19.13 383.36-16.35L383.36-16.35 383.36 0 378.01 0 377.56-3.55Q374.96 0.7 370.21 0.7ZM372.86-4.1L372.86-4.1Q373.99-4.1 375.27-5.01 376.56-5.93 377.31-7.35L377.31-7.35 377.31-10.9Q377.06-10.95 376.77-10.95 376.49-10.95 376.11-10.95L376.11-10.95Q374.74-10.95 373.22-10.64 371.71-10.33 370.66-9.55 369.61-8.78 369.61-7.4L369.61-7.4Q369.61-5.6 370.41-4.85 371.21-4.1 372.86-4.1ZM396.46 0L390.06 0 390.06-24.9 395.86-24.9 395.98-21.63Q396.96-23.13 398.71-24.31 400.46-25.5 403.31-25.5L403.31-25.5Q407.11-25.5 408.96-23.1 410.81-20.7 410.81-16.45L410.81-16.45 410.81 0 404.41 0 404.41-15.9Q404.41-17.98 403.53-19.26 402.66-20.55 400.86-20.55L400.86-20.55Q399.11-20.55 397.78-19.26 396.46-17.98 396.46-15.9L396.46-15.9 396.46 0ZM426.36 0.7L426.36 0.7Q423.33 0.7 421.11-0.93 418.88-2.55 417.67-5.5 416.45-8.45 416.45-12.4L416.45-12.4Q416.45-18.55 418.97-22.03 421.48-25.5 426.45-25.5L426.45-25.5Q429-25.5 430.77-24.24 432.53-22.98 433.06-20.6L433.06-20.6 432.61-24.25 432.61-38 438.5-38 438.5 0 433.06 0 433.06-5.1Q432.38-2.53 430.68-0.91 428.98 0.7 426.36 0.7ZM427.81-4.25L427.81-4.25Q429.61-4.25 431.03-6.14 432.45-8.03 432.45-12.3L432.45-12.3Q432.45-16.2 431.36-18.32 430.25-20.45 427.95-20.45L427.95-20.45Q426.78-20.45 425.62-19.73 424.45-19 423.68-17.24 422.91-15.48 422.91-12.4L422.91-12.4Q422.91-8.28 424.33-6.26 425.75-4.25 427.81-4.25ZM450.35 0.7L450.35 0.7Q448.05 0.7 446.54-0.33 445.03-1.35 444.29-3.05 443.55-4.75 443.55-6.8L443.55-6.8Q443.55-7.95 444.14-9.33 444.73-10.7 446.23-11.95 447.73-13.2 450.45-14 453.18-14.8 457.45-14.8L457.45-14.8 457.45-15.95Q457.45-17.8 456.57-19.03 455.68-20.25 453-20.25L453-20.25Q451.05-20.25 449.19-19.59 447.33-18.93 446.45-17.95L446.45-17.95 444.45-22.75Q445.95-23.78 448.47-24.64 450.98-25.5 454.05-25.5L454.05-25.5Q457.75-25.5 459.8-24.38 461.85-23.25 462.68-21.19 463.5-19.13 463.5-16.35L463.5-16.35 463.5 0 458.15 0 457.7-3.55Q455.1 0.7 450.35 0.7ZM453-4.1L453-4.1Q454.13-4.1 455.42-5.01 456.7-5.93 457.45-7.35L457.45-7.35 457.45-10.9Q457.2-10.95 456.92-10.95 456.63-10.95 456.25-10.95L456.25-10.95Q454.88-10.95 453.37-10.64 451.85-10.33 450.8-9.55 449.75-8.78 449.75-7.4L449.75-7.4Q449.75-5.6 450.55-4.85 451.35-4.1 453-4.1ZM476.2 0L469.95 0 469.95-24.9 475.6-24.9 475.9-20.5Q476.3-21.48 477.14-22.58 477.98-23.68 479.46-24.44 480.95-25.2 483.3-25.2L483.3-25.2Q484.03-25.2 484.58-25.1 485.13-25 485.6-24.8L485.6-24.8 484.2-18.25Q483.4-19.05 481.75-19.05L481.75-19.05Q479.83-19.05 478.6-18.26 477.38-17.48 476.79-16.5 476.2-15.53 476.2-15L476.2-15 476.2 0ZM497.15 0.7L497.15 0.7Q494.12 0.7 491.9-0.93 489.67-2.55 488.46-5.5 487.25-8.45 487.25-12.4L487.25-12.4Q487.25-18.55 489.76-22.03 492.27-25.5 497.25-25.5L497.25-25.5Q499.8-25.5 501.56-24.24 503.32-22.98 503.85-20.6L503.85-20.6 503.4-24.25 503.4-38 509.3-38 509.3 0 503.85 0 503.85-5.1Q503.17-2.53 501.47-0.91 499.77 0.7 497.15 0.7ZM498.6-4.25L498.6-4.25Q500.4-4.25 501.82-6.14 503.25-8.03 503.25-12.3L503.25-12.3Q503.25-16.2 502.15-18.32 501.05-20.45 498.75-20.45L498.75-20.45Q497.57-20.45 496.41-19.73 495.25-19 494.47-17.24 493.7-15.48 493.7-12.4L493.7-12.4Q493.7-8.28 495.12-6.26 496.55-4.25 498.6-4.25Z" opacity="1" transform="matrix(1,0,0,1,0,0)" fill="#b81d33" class="slogan-text-1" data-fill-palette-color="secondary" id="text-1"></path></svg></g></svg></g></svg></g></svg></g><g transform="matrix(1,0,0,1,411.7775804145934,0)"><svg viewBox="0 0 214.48851839999998 214.48851839999998" height="214.48851839999998" width="214.48851839999998"><g><svg></svg></g><g id="icon-0"><svg viewBox="0 0 214.48851839999998 214.48851839999998" height="214.48851839999998" width="214.48851839999998"><g><rect width="195.02567136" height="195.02567136" x="9.731423519999993" y="9.731423519999993" fill="#fe6e63" data-fill-palette-color="accent"></rect><rect width="195.02567136" height="195.02567136" x="-5.329070518200751e-15" y="-5.329070518200751e-15" fill="#fe6e63" opacity="0.5" data-fill-palette-color="accent"></rect></g><g transform="matrix(1,0,0,1,53.98739467300278,27.80406719999999)"><svg viewBox="0 0 106.51372905399441 158.880384" height="158.880384" width="106.51372905399441"><g><svg xmlns="http://www.w3.org/2000/svg" xmlns:xlink="http://www.w3.org/1999/xlink" version="1.1" x="0" y="0" viewBox="26.472240251364347 17.4 37.006191046092205 55.199999999999996" enable-background="new 0 0 90 90" xml:space="preserve" height="158.880384" width="106.51372905399441" class="icon-dxe-0" data-fill-palette-color="quaternary" id="dxe-0"><path fill="#ffffff" d="M54.6 61.5C59.5 61.4 61.9 60.8 62.9 59.2 64.3 57.1 63 53.4 60.7 48 59.3 44.6 60.4 40.8 61.6 36.7L61.9 35.7C62.5 33.5 62.5 32.3 61.9 31.5 61.2 30.5 59.6 30.4 57.5 30.4 56.9 30.4 56.8 30.3 56.8 30.3 56.7 30.2 56.7 29.9 56.7 29.6V29.4C56.7 28.5 56.7 27.5 55.2 27.3H54.3V25.9C55.9 24.2 56.7 22.9 56.7 21.7S55.9 19.8 55.3 19.2C54.8 18.7 54.4 18.3 54.4 17.9 54.4 17.6 54.2 17.4 53.9 17.4 53.7 17.4 53.4 17.6 53.4 17.9 53.4 18.3 53 18.7 52.5 19.2 51.9 19.8 51.1 20.5 51.1 21.7S51.8 24.2 53.5 25.8V27.2H52.6C51.1 27.4 51.1 28.4 51.1 29.3V29.5C51.1 29.8 51.1 30.1 51 30.2 51 30.2 50.9 30.3 50.3 30.3 48.2 30.3 46.6 30.4 45.9 31.4 45.3 32.2 45.3 33.5 45.9 35.6L46.2 36.6C47.4 40.6 48.5 44.5 47.1 47.9 44.9 53.3 43.5 57 44.9 59.1 46 60.7 48.4 61.3 53.6 61.4V66.4C51.9 65.8 50.5 65.1 50.5 64.1 50.5 63.8 50.3 63.6 50 63.6S49.5 63.8 49.5 64C49.5 64 49.2 65.7 48.1 65.7 47.7 65.7 47.3 65.5 46.7 65.2 40 60.9 31.2 51 31.1 50.9 31.1 51 31 51 30.9 51S30.6 51 30.5 51.1C26.3 55.3 25.3 59.2 27.9 61.8S30.4 67.6 30.4 70.8V72.1C30.4 72.4 30.6 72.6 30.9 72.6S31.4 72.4 31.4 72.2C31.9 68.3 33.4 62 35.8 62 37 62 38.3 63.7 39.7 65.6 42.1 68.7 45 72.6 50.1 72.6 55.5 72.6 58.3 72.2 59.6 71.1 60.3 71.6 61.1 72.2 62.4 72.2 62.7 72.2 62.9 72 62.9 71.7S62.7 71.2 62.4 71.2C61.4 71.2 60.8 70.8 60.1 70.3 60.2 70 60.3 69.6 60.3 69.2 60.3 68.3 59 68 56.7 67.5 56 67.3 55.3 67.1 54.5 66.9V61.5zM52 21.7C52 21 52.6 20.5 53.1 19.9 53.4 19.7 53.6 19.4 53.8 19.1 54 19.4 54.3 19.6 54.5 19.9 55.1 20.4 55.6 21 55.6 21.7S55.1 23.3 54.2 24.4V22.3C54.2 22 54 21.8 53.7 21.8S53.2 22 53.2 22.3V24.3C52.5 23.3 52 22.4 52 21.7M53.1 28.2H54.8C55.8 28.2 55.8 28.3 55.8 29.3V29.4H52.1V29.3C52.1 28.4 52.1 28.2 53.1 28.2M56.5 68.4C57.6 68.7 59 69 59.3 69.3 59.3 69.6 59.2 69.9 59 70.2 58.4 71.1 56.4 71.7 50 71.7 45.4 71.7 42.6 68 40.4 65 38.8 62.9 37.4 61 35.7 61 33.4 61 32 64.2 31.2 67.2 31 65.1 30.3 63 28.5 61.2 25.7 58.4 28.5 54.6 30.7 52.3 32.4 54.2 40.1 62.5 46.2 66.3 46.9 66.7 47.5 67 48.1 67 49 67 49.6 66.4 50 65.8 51.3 67.1 54.1 67.8 56.5 68.4M53.9 60.5C48.9 60.5 46.6 60 45.7 58.7 44.6 57 46 53.4 48 48.4 49.6 44.6 48.3 40.5 47.2 36.5L46.9 35.5C46.4 33.7 46.3 32.6 46.7 32.1 47.2 31.5 48.6 31.4 50.3 31.4 51 31.4 51.4 31.3 51.7 31 51.8 30.9 51.9 30.7 52 30.5H55.9C55.9 30.7 56 30.9 56.2 31 56.5 31.3 56.9 31.4 57.6 31.4 59.4 31.4 60.7 31.4 61.2 32.1 61.6 32.6 61.5 33.7 61 35.5L60.7 36.5C59.5 40.5 58.3 44.7 59.9 48.4 62 53.4 63.3 57 62.2 58.7 61.3 60 58.9 60.5 53.9 60.5" data-fill-palette-color="quaternary"></path></svg></g></svg></g></svg></g></svg></g></svg></g><defs></defs></svg><rect width="395.52" height="135.46078728857287" fill="none" stroke="none" visibility="hidden"></rect></g></svg></g></svg>